<!--
  - Copyright (c) 2023 by Fabrice Douchant <fabrice.douchant@gmail.com>.
  - This program is free software: you can redistribute it and/or modify it under the terms of the GNU Affero General Public License as published by the Free Software Foundation, either version 3 of the License, or (at your option) any later version.
  - This program is distributed in the hope that it will be useful, but WITHOUT ANY WARRANTY; without even the implied warranty of MERCHANTABILITY or FITNESS FOR A PARTICULAR PURPOSE. See the GNU General Public License for more details.
  - You should have received a copy of the GNU General Public License along with this program. If not, see <https://www.gnu.org/licenses/>.
  -->

<svg xmlns="http://www.w3.org/2000/svg" xmlns:xlink="http://www.w3.org/1999/xlink" width="141.672" height="33.087" viewBox="0 0 141.672 33.087"><defs><style>.a{fill:none;}.b{clip-path:url(#a);}.c{fill:#3d3a3d;}</style><clipPath id="a"><path class="a" d="M0-8.112H141.672V-41.2H0Z" transform="translate(0 41.199)"/></clipPath></defs><g transform="translate(0 41.199)"><g class="b" transform="translate(0 -41.199)"><g transform="translate(6.507 6.517)"><path class="c" d="M-1.315-4.465H-3.863v-17.39a.881.881,0,0,0-.871-.822H-5.807a.859.859,0,0,0-.872.822v18.7A1.345,1.345,0,0,0-5.27-1.854h3.955a.838.838,0,0,0,.872-.82v-.971a.859.859,0,0,0-.872-.82" transform="translate(6.679 22.677)"/></g><g transform="translate(15.859 6.517)"><path class="c" d="M-1.036,0A4.055,4.055,0,0,0-5.26,3.851V20a.859.859,0,0,0,.872.821h1.073A.838.838,0,0,0-2.444,20V11.7H.338V20a.839.839,0,0,0,.873.821H2.283A.839.839,0,0,0,3.155,20V3.851A4.036,4.036,0,0,0-1.036,0M-2.444,3.851a1.319,1.319,0,0,1,1.408-1.24A1.313,1.313,0,0,1,.338,3.851v5.24H-2.444Z" transform="translate(5.26)"/></g><g transform="translate(32.741 6.456)"><path class="c" d="M-1.558-.134A4.427,4.427,0,0,0-2.973-.618a4.635,4.635,0,0,0-.737-.063l-.053,0a4.564,4.564,0,0,0-.625.052,4.485,4.485,0,0,0-.97.253A4.153,4.153,0,0,0-7.251,1.093a3.571,3.571,0,0,0-.663,2.058V16.37a3.709,3.709,0,0,0,1.552,2.971,4.377,4.377,0,0,0,1.682.755,4.565,4.565,0,0,0,.969.107,4.585,4.585,0,0,0,.484-.028,4.42,4.42,0,0,0,1.8-.592A4.069,4.069,0,0,0-.183,18.447,3.57,3.57,0,0,0,.492,16.37V15.246a.841.841,0,0,0-.875-.823H-1.459a1,1,0,0,0-.191.02.826.826,0,0,0-.684.8V16.37a1.085,1.085,0,0,1-.156.549,1.4,1.4,0,0,1-1.221.664,1.514,1.514,0,0,1-.586-.12,1.212,1.212,0,0,1-.791-1.093V3.151a1.194,1.194,0,0,1,.7-1.05,1.491,1.491,0,0,1,.631-.159c.015,0,.031,0,.047,0a1.5,1.5,0,0,1,.737.192,1.185,1.185,0,0,1,.639,1.021V4.184A.831.831,0,0,0-1.558,5c.033,0,.066.009.1.009H-.383a.841.841,0,0,0,.875-.823V3.151A3.78,3.78,0,0,0-1.558-.134" transform="translate(7.914 0.681)"/></g><g transform="translate(43.598 6.456)"><path class="c" d="M-1.847,0H-2.889a.862.862,0,0,0-.875.824V9.147H-6.552V.824A.862.862,0,0,0-7.427,0H-8.5a.868.868,0,0,0-.875.854V20.061a.841.841,0,0,0,.875.823h1.075a.841.841,0,0,0,.875-.823V11.767h2.788v8.294a.841.841,0,0,0,.875.823h1.042a.841.841,0,0,0,.875-.823V.824A.862.862,0,0,0-1.847,0" transform="translate(9.378 0)"/></g><g transform="translate(55.464 6.456)"><path class="c" d="M-1.039,0A4.068,4.068,0,0,0-5.275,3.863V17.051a4.055,4.055,0,0,0,4.236,3.832,4.036,4.036,0,0,0,4.2-3.832V3.863A4.049,4.049,0,0,0-1.039,0M.339,17.051a1.3,1.3,0,0,1-1.377,1.213A1.324,1.324,0,0,1-2.45,17.051V3.863A1.322,1.322,0,0,1-1.039,2.619,1.317,1.317,0,0,1,.339,3.863Z" transform="translate(5.275)"/></g><g transform="translate(67.364 6.456)"><path class="c" d="M-1.855,0H-2.93a.863.863,0,0,0-.875.824V17.051a1.3,1.3,0,0,1-1.377,1.213,1.324,1.324,0,0,1-1.411-1.213V.824A.862.862,0,0,0-7.468,0H-8.544a.884.884,0,0,0-.875.824V17.051a4.055,4.055,0,0,0,4.236,3.832,4.036,4.036,0,0,0,4.2-3.832V.824A.862.862,0,0,0-1.855,0" transform="translate(9.419 0)"/></g><g transform="translate(90.49 6.456)"><path class="c" d="M-1.855,0H-2.931a.862.862,0,0,0-.875.824V17.051a1.3,1.3,0,0,1-1.377,1.213,1.324,1.324,0,0,1-1.411-1.213V.824A.862.862,0,0,0-7.468,0H-8.544a.884.884,0,0,0-.875.824V17.051a4.055,4.055,0,0,0,4.236,3.832,4.036,4.036,0,0,0,4.2-3.832V.824A.862.862,0,0,0-1.855,0" transform="translate(9.419 0)"/></g><g transform="translate(101.717 6.456)"><path class="c" d="M-1.327,0h-4A1.366,1.366,0,0,0-6.74,1.31V19.574a1.35,1.35,0,0,0,1.413,1.31h4a.841.841,0,0,0,.875-.823v-.973a.862.862,0,0,0-.875-.823H-3.915v-6.5h2.588a.862.862,0,0,0,.875-.824V9.971a.841.841,0,0,0-.875-.823H-3.915V2.619h2.588A.841.841,0,0,0-.452,1.8V.824A.862.862,0,0,0-1.327,0" transform="translate(6.74 0)"/></g><g transform="translate(110.457 6.456)"><path class="c" d="M-1.484,0H-6.661a.863.863,0,0,0-.875.824V1.8a.841.841,0,0,0,.875.823h1.177V20.061a.841.841,0,0,0,.875.823h1.076a.841.841,0,0,0,.875-.823V2.619h1.176A.841.841,0,0,0-.609,1.8V.824A.862.862,0,0,0-1.484,0" transform="translate(7.536 0)"/></g><g transform="translate(119.499 6.456)"><path class="c" d="M-1.484,0H-6.661a.862.862,0,0,0-.875.824V1.8a.841.841,0,0,0,.875.823h1.177V20.061a.841.841,0,0,0,.875.823h1.075a.841.841,0,0,0,.875-.823V2.619h1.176A.841.841,0,0,0-.609,1.8V.824A.862.862,0,0,0-1.484,0" transform="translate(7.536 0)"/></g><g transform="translate(128.877 6.457)"><path class="c" d="M-1.434-.029a.9.9,0,0,0-.437-.117h-4a1.474,1.474,0,0,0-.34.043,1.383,1.383,0,0,0-.972.787,1.218,1.218,0,0,0-.1.479V19.427a1.274,1.274,0,0,0,.62,1.09,1.493,1.493,0,0,0,.793.22h4A.841.841,0,0,0-1,19.914v-.973a.862.862,0,0,0-.875-.823H-4.459v-6.5h2.588a.89.89,0,0,0,.76-.43A.758.758,0,0,0-1,10.8V9.825A.841.841,0,0,0-1.871,9H-4.459V2.473h2.588a.923.923,0,0,0,.434-.109A.8.8,0,0,0-1,1.65V.677a.824.824,0,0,0-.438-.706" transform="translate(7.284 0.146)"/></g><g transform="translate(79.263 6.517)"><path class="c" d="M-1.031,0a4.036,4.036,0,0,0-4.2,3.832V16.99a3.884,3.884,0,0,0,2.79,3.595v5.131H.377V20.585A3.888,3.888,0,0,0,3.172,16.99V3.832A4.035,4.035,0,0,0-1.031,0M.347,16.99A1.305,1.305,0,0,1-1.031,18.2,1.3,1.3,0,0,1-2.408,16.99V3.832A1.317,1.317,0,0,1-1.031,2.589,1.317,1.317,0,0,1,.347,3.832Z" transform="translate(5.234)"/></g></g><path class="c" d="M0-8.112H141.671V-41.2H0ZM0-41.2m1.707,1.707H139.965V-9.819H1.707Z"/></g></svg>
